<?xml version="1.0" encoding="UTF-8"?><svg xmlns="http://www.w3.org/2000/svg" xmlns:xlink="http://www.w3.org/1999/xlink" fill-opacity="1" color-rendering="auto" color-interpolation="auto" text-rendering="auto" stroke="black" stroke-linecap="square" width="1184" stroke-miterlimit="10" shape-rendering="auto" stroke-opacity="1" fill="black" stroke-dasharray="none" font-weight="normal" stroke-width="1" height="1289" font-family="'Dialog'" font-style="normal" stroke-linejoin="miter" font-size="12px" stroke-dashoffset="0" image-rendering="auto">
  <!--Generated by ySVG 2.5-->
  <defs id="genericDefs"/>
  <g>
    <defs id="defs1">
      <clipPath clipPathUnits="userSpaceOnUse" id="clipPath1">
        <path d="M0 0 L1184 0 L1184 1289 L0 1289 L0 0 Z"/>
      </clipPath>
      <clipPath clipPathUnits="userSpaceOnUse" id="clipPath2">
        <path d="M157 196 L1341 196 L1341 1485 L157 1485 L157 196 Z"/>
      </clipPath>
    </defs>
    <g fill="white" text-rendering="geometricPrecision" shape-rendering="geometricPrecision" transform="translate(-157,-196)" stroke="white">
      <rect x="157" width="1184" height="1289" y="196" clip-path="url(#clipPath2)" stroke="none"/>
    </g>
    <g fill="rgb(255,204,0)" text-rendering="geometricPrecision" shape-rendering="geometricPrecision" transform="matrix(1,0,0,1,-157,-196)" stroke="rgb(255,204,0)">
      <path d="M471 280 L610.5 280 L626 374 L486.5 374 Z" fill-rule="evenodd" clip-path="url(#clipPath2)" stroke="none"/>
    </g>
    <g text-rendering="geometricPrecision" stroke-miterlimit="1.45" shape-rendering="geometricPrecision" transform="matrix(1,0,0,1,-157,-196)" stroke-linecap="butt">
      <path fill="none" d="M471 280 L610.5 280 L626 374 L486.5 374 Z" fill-rule="evenodd" clip-path="url(#clipPath2)"/>
      <text x="522.4873" xml:space="preserve" y="324.3633" clip-path="url(#clipPath2)" font-family="sans-serif" stroke="none">first logon</text>
      <text x="513.4727" xml:space="preserve" y="339.0645" clip-path="url(#clipPath2)" font-family="sans-serif" stroke="none">to dashboard</text>
    </g>
    <g fill="rgb(255,204,0)" text-rendering="geometricPrecision" shape-rendering="geometricPrecision" transform="matrix(1,0,0,1,-157,-196)" stroke="rgb(255,204,0)">
      <rect x="712" width="168" height="94" y="213.5" clip-path="url(#clipPath2)" stroke="none"/>
    </g>
    <g text-rendering="geometricPrecision" stroke-miterlimit="1.45" shape-rendering="geometricPrecision" transform="matrix(1,0,0,1,-157,-196)" stroke-linecap="butt">
      <rect fill="none" x="712" width="168" height="94" y="213.5" clip-path="url(#clipPath2)"/>
      <text x="761.6465" xml:space="preserve" y="265.2139" clip-path="url(#clipPath2)" font-family="sans-serif" stroke="none">user account</text>
    </g>
    <g fill="rgb(255,204,0)" text-rendering="geometricPrecision" shape-rendering="geometricPrecision" transform="matrix(1,0,0,1,-157,-196)" stroke="rgb(255,204,0)">
      <rect x="712" width="168" height="94" y="337.5" clip-path="url(#clipPath2)" stroke="none"/>
    </g>
    <g text-rendering="geometricPrecision" stroke-miterlimit="1.45" shape-rendering="geometricPrecision" transform="matrix(1,0,0,1,-157,-196)" stroke-linecap="butt">
      <rect fill="none" x="712" width="168" height="94" y="337.5" clip-path="url(#clipPath2)"/>
      <text x="770.9893" xml:space="preserve" y="389.2139" clip-path="url(#clipPath2)" font-family="sans-serif" stroke="none">pt-project</text>
    </g>
    <g fill="rgb(255,204,0)" text-rendering="geometricPrecision" shape-rendering="geometricPrecision" transform="matrix(1,0,0,1,-157,-196)" stroke="rgb(255,204,0)">
      <path d="M272 239 L346 387 L198 387 Z" fill-rule="evenodd" clip-path="url(#clipPath2)" stroke="none"/>
    </g>
    <g text-rendering="geometricPrecision" stroke-miterlimit="1.45" shape-rendering="geometricPrecision" transform="matrix(1,0,0,1,-157,-196)" stroke-linecap="butt">
      <path fill="none" d="M272 239 L346 387 L198 387 Z" fill-rule="evenodd" clip-path="url(#clipPath2)"/>
      <text x="260.3281" xml:space="preserve" y="405.0645" clip-path="url(#clipPath2)" font-family="sans-serif" stroke="none">user</text>
    </g>
    <g fill="rgb(255,204,0)" text-rendering="geometricPrecision" shape-rendering="geometricPrecision" transform="matrix(1,0,0,1,-157,-196)" stroke="rgb(255,204,0)">
      <ellipse rx="52" ry="49.5" clip-path="url(#clipPath2)" cx="272" cy="260.5" stroke="none"/>
    </g>
    <g text-rendering="geometricPrecision" stroke-miterlimit="1.45" shape-rendering="geometricPrecision" transform="matrix(1,0,0,1,-157,-196)" stroke-linecap="butt">
      <ellipse rx="52" fill="none" ry="49.5" clip-path="url(#clipPath2)" cx="272" cy="260.5"/>
    </g>
    <g fill="rgb(255,204,0)" text-rendering="geometricPrecision" shape-rendering="geometricPrecision" transform="matrix(1,0,0,1,-157,-196)" stroke="rgb(255,204,0)">
      <path d="M471 587 L610.5 587 L626 681 L486.5 681 Z" fill-rule="evenodd" clip-path="url(#clipPath2)" stroke="none"/>
    </g>
    <g text-rendering="geometricPrecision" stroke-miterlimit="1.45" shape-rendering="geometricPrecision" transform="matrix(1,0,0,1,-157,-196)" stroke-linecap="butt">
      <path fill="none" d="M471 587 L610.5 587 L626 681 L486.5 681 Z" fill-rule="evenodd" clip-path="url(#clipPath2)"/>
      <text x="523.8203" xml:space="preserve" y="631.3633" clip-path="url(#clipPath2)" font-family="sans-serif" stroke="none">requests </text>
      <text x="523.1494" xml:space="preserve" y="646.0645" clip-path="url(#clipPath2)" font-family="sans-serif" stroke="none">allocation</text>
    </g>
    <g fill="rgb(255,204,0)" text-rendering="geometricPrecision" shape-rendering="geometricPrecision" transform="matrix(1,0,0,1,-157,-196)" stroke="rgb(255,204,0)">
      <path d="M1252 734 L1326 882 L1178 882 Z" fill-rule="evenodd" clip-path="url(#clipPath2)" stroke="none"/>
    </g>
    <g text-rendering="geometricPrecision" stroke-miterlimit="1.45" shape-rendering="geometricPrecision" transform="matrix(1,0,0,1,-157,-196)" stroke-linecap="butt">
      <path fill="none" d="M1252 734 L1326 882 L1178 882 Z" fill-rule="evenodd" clip-path="url(#clipPath2)"/>
      <text x="1191.9619" xml:space="preserve" y="900.0645" clip-path="url(#clipPath2)" font-family="sans-serif" stroke="none">nectar/node approvers</text>
    </g>
    <g fill="rgb(255,204,0)" text-rendering="geometricPrecision" shape-rendering="geometricPrecision" transform="matrix(1,0,0,1,-157,-196)" stroke="rgb(255,204,0)">
      <ellipse rx="52" ry="49.5" clip-path="url(#clipPath2)" cx="1252" cy="758" stroke="none"/>
    </g>
    <g text-rendering="geometricPrecision" stroke-miterlimit="1.45" shape-rendering="geometricPrecision" transform="matrix(1,0,0,1,-157,-196)" stroke-linecap="butt">
      <ellipse rx="52" fill="none" ry="49.5" clip-path="url(#clipPath2)" cx="1252" cy="758"/>
    </g>
    <g fill="rgb(255,204,0)" text-rendering="geometricPrecision" shape-rendering="geometricPrecision" transform="matrix(1,0,0,1,-157,-196)" stroke="rgb(255,204,0)">
      <rect x="712" width="168" height="94" y="587" clip-path="url(#clipPath2)" stroke="none"/>
    </g>
    <g text-rendering="geometricPrecision" stroke-miterlimit="1.45" shape-rendering="geometricPrecision" transform="matrix(1,0,0,1,-157,-196)" stroke-linecap="butt">
      <rect fill="none" x="712" width="168" height="94" y="587" clip-path="url(#clipPath2)"/>
      <text x="748.9697" xml:space="preserve" y="638.7139" clip-path="url(#clipPath2)" font-family="sans-serif" stroke="none">allocation request</text>
    </g>
    <g fill="rgb(255,204,0)" text-rendering="geometricPrecision" shape-rendering="geometricPrecision" transform="matrix(1,0,0,1,-157,-196)" stroke="rgb(255,204,0)">
      <path d="M948 747 L1087.5 747 L1103 841 L963.5 841 Z" fill-rule="evenodd" clip-path="url(#clipPath2)" stroke="none"/>
    </g>
    <g text-rendering="geometricPrecision" stroke-miterlimit="1.45" shape-rendering="geometricPrecision" transform="matrix(1,0,0,1,-157,-196)" stroke-linecap="butt">
      <path fill="none" d="M948 747 L1087.5 747 L1103 841 L963.5 841 Z" fill-rule="evenodd" clip-path="url(#clipPath2)"/>
      <text x="1000.4893" xml:space="preserve" y="798.7139" clip-path="url(#clipPath2)" font-family="sans-serif" stroke="none">assesses</text>
    </g>
    <g fill="rgb(255,204,0)" text-rendering="geometricPrecision" shape-rendering="geometricPrecision" transform="matrix(1,0,0,1,-157,-196)" stroke="rgb(255,204,0)">
      <rect x="712" width="168" height="94" y="923" clip-path="url(#clipPath2)" stroke="none"/>
    </g>
    <g text-rendering="geometricPrecision" stroke-miterlimit="1.45" shape-rendering="geometricPrecision" transform="matrix(1,0,0,1,-157,-196)" stroke-linecap="butt">
      <rect fill="none" x="712" width="168" height="94" y="923" clip-path="url(#clipPath2)"/>
      <text x="777.9912" xml:space="preserve" y="974.7139" clip-path="url(#clipPath2)" font-family="sans-serif" stroke="none">project</text>
    </g>
    <g fill="rgb(255,204,0)" text-rendering="geometricPrecision" shape-rendering="geometricPrecision" transform="matrix(1,0,0,1,-157,-196)" stroke="rgb(255,204,0)">
      <rect x="712" width="168" height="94" y="755" clip-path="url(#clipPath2)" stroke="none"/>
    </g>
    <g text-rendering="geometricPrecision" stroke-miterlimit="1.45" shape-rendering="geometricPrecision" transform="matrix(1,0,0,1,-157,-196)" stroke-linecap="butt">
      <rect fill="none" x="712" width="168" height="94" y="755" clip-path="url(#clipPath2)"/>
      <text x="752.9746" xml:space="preserve" y="806.7139" clip-path="url(#clipPath2)" font-family="sans-serif" stroke="none">rejected request</text>
    </g>
    <g fill="rgb(255,204,0)" text-rendering="geometricPrecision" shape-rendering="geometricPrecision" transform="matrix(1,0,0,1,-157,-196)" stroke="rgb(255,204,0)">
      <path d="M471.0001 1025.9375 L610.4996 1025.9375 L626 1122.25 L486.4998 1122.25 Z" fill-rule="evenodd" clip-path="url(#clipPath2)" stroke="none"/>
    </g>
    <g text-rendering="geometricPrecision" stroke-miterlimit="1.45" shape-rendering="geometricPrecision" transform="matrix(1,0,0,1,-157,-196)" stroke-linecap="butt">
      <path fill="none" d="M471.0001 1025.9375 L610.4996 1025.9375 L626 1122.25 L486.4998 1122.25 Z" fill-rule="evenodd" clip-path="url(#clipPath2)"/>
      <text x="532.4951" xml:space="preserve" y="1078.8076" clip-path="url(#clipPath2)" font-family="sans-serif" stroke="none">expiry</text>
    </g>
    <g fill="rgb(255,204,0)" text-rendering="geometricPrecision" shape-rendering="geometricPrecision" transform="matrix(1,0,0,1,-157,-196)" stroke="rgb(255,204,0)">
      <path d="M471 747 L610.5 747 L626 841 L486.5 841 Z" fill-rule="evenodd" clip-path="url(#clipPath2)" stroke="none"/>
    </g>
    <g text-rendering="geometricPrecision" stroke-miterlimit="1.45" shape-rendering="geometricPrecision" transform="matrix(1,0,0,1,-157,-196)" stroke-linecap="butt">
      <path fill="none" d="M471 747 L610.5 747 L626 841 L486.5 841 Z" fill-rule="evenodd" clip-path="url(#clipPath2)"/>
      <text x="523.8203" xml:space="preserve" y="776.6621" clip-path="url(#clipPath2)" font-family="sans-serif" stroke="none">requests </text>
      <text x="515.1484" xml:space="preserve" y="791.3633" clip-path="url(#clipPath2)" font-family="sans-serif" stroke="none">amendment </text>
      <text x="541.498" xml:space="preserve" y="806.0645" clip-path="url(#clipPath2)" font-family="sans-serif" stroke="none">or </text>
      <text x="522.8154" xml:space="preserve" y="820.7656" clip-path="url(#clipPath2)" font-family="sans-serif" stroke="none">extension</text>
    </g>
    <g fill="rgb(255,204,0)" text-rendering="geometricPrecision" shape-rendering="geometricPrecision" transform="matrix(1,0,0,1,-157,-196)" stroke="rgb(255,204,0)">
      <rect x="198" width="168" height="94" y="834.25" clip-path="url(#clipPath2)" stroke="none"/>
    </g>
    <g text-rendering="geometricPrecision" stroke-miterlimit="1.45" shape-rendering="geometricPrecision" transform="matrix(1,0,0,1,-157,-196)" stroke-linecap="butt">
      <rect fill="none" x="198" width="168" height="94" y="834.25" clip-path="url(#clipPath2)"/>
      <text x="261.3252" xml:space="preserve" y="878.6133" clip-path="url(#clipPath2)" font-family="sans-serif" stroke="none">multiple</text>
      <text x="250.3154" xml:space="preserve" y="893.3145" clip-path="url(#clipPath2)" font-family="sans-serif" stroke="none">notifications</text>
    </g>
    <g fill="rgb(255,204,0)" text-rendering="geometricPrecision" shape-rendering="geometricPrecision" transform="matrix(1,0,0,1,-157,-196)" stroke="rgb(255,204,0)">
      <path d="M198 834.25 L366 834.25 L282 864.25 Z" fill-rule="evenodd" clip-path="url(#clipPath2)" stroke="none"/>
    </g>
    <g text-rendering="geometricPrecision" stroke-miterlimit="1.45" shape-rendering="geometricPrecision" transform="matrix(1,0,0,1,-157,-196)" stroke-linecap="butt">
      <path fill="none" d="M198 834.25 L366 834.25 L282 864.25 Z" fill-rule="evenodd" clip-path="url(#clipPath2)"/>
    </g>
    <g fill="rgb(255,204,0)" text-rendering="geometricPrecision" shape-rendering="geometricPrecision" transform="matrix(1,0,0,1,-157,-196)" stroke="rgb(255,204,0)">
      <rect x="712" width="168" height="94" y="1251.1562" clip-path="url(#clipPath2)" stroke="none"/>
    </g>
    <g text-rendering="geometricPrecision" stroke-miterlimit="1.45" shape-rendering="geometricPrecision" transform="matrix(1,0,0,1,-157,-196)" stroke-linecap="butt">
      <rect fill="none" x="712" width="168" height="94" y="1251.1562" clip-path="url(#clipPath2)"/>
      <text x="753.6455" xml:space="preserve" y="1302.8701" clip-path="url(#clipPath2)" font-family="sans-serif" stroke="none">archived project</text>
    </g>
    <g fill="rgb(255,204,0)" text-rendering="geometricPrecision" shape-rendering="geometricPrecision" transform="matrix(1,0,0,1,-157,-196)" stroke="rgb(255,204,0)">
      <rect x="712" width="168" height="94" y="1375.1562" clip-path="url(#clipPath2)" stroke="none"/>
    </g>
    <g text-rendering="geometricPrecision" stroke-miterlimit="1.45" shape-rendering="geometricPrecision" transform="matrix(1,0,0,1,-157,-196)" stroke-linecap="butt">
      <rect fill="none" x="712" width="168" height="94" y="1375.1562" clip-path="url(#clipPath2)"/>
      <text x="756.6396" xml:space="preserve" y="1426.8701" clip-path="url(#clipPath2)" font-family="sans-serif" stroke="none">deleted project</text>
    </g>
    <g fill="rgb(255,204,0)" text-rendering="geometricPrecision" shape-rendering="geometricPrecision" transform="matrix(1,0,0,1,-157,-196)" stroke="rgb(255,204,0)">
      <rect x="712" width="168" height="94" y="1127.1562" clip-path="url(#clipPath2)" stroke="none"/>
    </g>
    <g text-rendering="geometricPrecision" stroke-miterlimit="1.45" shape-rendering="geometricPrecision" transform="matrix(1,0,0,1,-157,-196)" stroke-linecap="butt">
      <rect fill="none" x="712" width="168" height="94" y="1127.1562" clip-path="url(#clipPath2)"/>
      <text x="759.6484" xml:space="preserve" y="1178.8701" clip-path="url(#clipPath2)" font-family="sans-serif" stroke="none">frozen project</text>
      <path fill="none" d="M612.4463 291.922 L635.9886 282.248 L666.5712 272.6145 L697.8636 265.623 L704.0937 264.7762" clip-path="url(#clipPath2)"/>
      <path d="M712.0208 263.6988 L699.4567 260.3604 L703.1028 264.9109 L700.8035 270.2693 Z" clip-path="url(#clipPath2)" stroke="none"/>
      <path fill="none" d="M624.7352 374.0004 L634.4044 378.2973 L649.5277 383.3778 L664.8813 387.4671 L680.4652 390.5653 L696.2794 392.6723 L704.0345 392.9699" clip-path="url(#clipPath2)"/>
      <path d="M712.0287 393.2768 L700.2293 387.8202 L703.0353 392.9316 L699.8458 397.8128 Z" clip-path="url(#clipPath2)" stroke="none"/>
      <path fill="none" d="M309.9715 314.9226 L470.1921 323.035" clip-path="url(#clipPath2)"/>
      <path d="M478.1819 323.4396 L466.45 317.8392 L469.1934 322.9845 L465.9444 327.8264 Z" clip-path="url(#clipPath2)" stroke="none"/>
      <path fill="none" d="M286.8605 386.9896 L291.0028 401.4757 L300.7054 428.0663 L312.0921 453.2061 L325.163 476.8953 L339.918 499.1339 L356.3572 519.9217 L374.4805 539.2589 L394.288 557.1453 L415.7796 573.5811 L438.9554 588.5663 L463.8153 602.1007 L466.9808 603.5417" clip-path="url(#clipPath2)"/>
      <path d="M474.2618 606.8563 L465.4119 597.3338 L466.0707 603.1274 L461.2687 606.4351 Z" clip-path="url(#clipPath2)" stroke="none"/>
      <path fill="none" d="M620.8587 649.8278 L641.3125 652.2396 L672.25 653.4556 L703.1875 652.2396 L704.0344 652.1398" clip-path="url(#clipPath2)"/>
      <path d="M711.9793 651.2029 L699.4764 647.6426 L703.0413 652.2569 L700.6474 657.5738 Z" clip-path="url(#clipPath2)" stroke="none"/>
      <path fill="none" d="M879.9819 630.6405 L883.375 630.9688 L902.0938 634.6934 L919.5625 640.2109 L935.7812 647.5215 L950.75 656.625 L964.4688 667.5215 L976.9375 680.2109 L988.1562 694.6934 L998.125 710.9688 L1006.8438 729.0371 L1010.7819 739.5096" clip-path="url(#clipPath2)"/>
      <path d="M1013.5977 746.9976 L1014.054 734.0056 L1010.4299 738.5735 L1004.6939 737.5255 Z" clip-path="url(#clipPath2)" stroke="none"/>
      <path fill="none" d="M1216.084 805.78 L1103.9767 798.8506" clip-path="url(#clipPath2)"/>
      <path d="M1095.9919 798.3571 L1107.6606 804.0879 L1104.9749 798.9124 L1108.2776 794.1069 Z" clip-path="url(#clipPath2)" stroke="none"/>
      <path fill="none" d="M1016.0942 840.9688 L1016.0625 841.1016 L1009.2812 861.9629 L1001.125 881.0312 L991.5938 898.3066 L980.6875 913.7891 L968.4062 927.4785 L954.75 939.375 L939.7188 949.4785 L923.3125 957.7891 L905.5312 964.3066 L887.8951 968.6563 L887.7961 968.6705" clip-path="url(#clipPath2)"/>
      <path d="M879.9004 969.9578 L892.5486 972.9617 L888.7831 968.5096 L890.9395 963.092 Z" clip-path="url(#clipPath2)" stroke="none"/>
      <path fill="none" d="M958.7218 811.9003 L940.0612 814.8914 L911.4152 817.0842 L888.0084 816.9271 L887.9088 816.9182" clip-path="url(#clipPath2)"/>
      <path d="M879.9133 816.6489 L891.7382 822.05 L888.9082 816.9519 L892.0749 812.0557 Z" clip-path="url(#clipPath2)" stroke="none"/>
      <path fill="none" d="M712.0184 967.725 L704.4247 968.6914 L687.6622 972.1211 L671.4171 976.7812 L655.6896 982.6719 L640.4796 989.793 L625.7872 998.1445 L611.6122 1007.7266 L597.9547 1018.5391 L595.7682 1020.543" clip-path="url(#clipPath2)"/>
      <path d="M589.8705 1025.9484 L602.0953 1021.5264 L596.5054 1019.8674 L595.3387 1014.1543 Z" clip-path="url(#clipPath2)" stroke="none"/>
      <path fill="none" d="M260.6461 386.9818 L259.1649 400.3712 L257.8257 441.1376 L259.8721 479.9578 L265.3039 516.8318 L274.1213 551.7597 L286.3243 584.7415 L301.9128 615.777 L320.8868 644.8665 L343.2463 672.0097 L368.9914 697.2068 L398.1221 720.4578 L430.6382 741.7626 L466.5399 761.1212 L466.5541 761.1275" clip-path="url(#clipPath2)"/>
      <path d="M473.868 764.3691 L464.9232 754.9355 L465.6399 760.7223 L460.8712 764.0779 Z" clip-path="url(#clipPath2)" stroke="none"/>
      <path fill="none" stroke-dasharray="12,4" d="M711.986 815.9199 L702.6158 816.6854 L671.6403 816.8644 L640.7408 814.6854 L630.1096 813.1205" stroke-width="2" clip-path="url(#clipPath2)"/>
      <path stroke-dasharray="12,4" d="M621.2055 811.8099 L633.7424 819.3409 L631.2225 813.2844 L635.3807 808.2109 Z" stroke-width="2" clip-path="url(#clipPath2)" stroke="none"/>
      <path fill="none" d="M613.4882 765.2435 L616.6671 763.7331 L649.1776 746.1664 L680.6395 726.9775 L711.0526 706.1664 L737.4312 686.0142 L737.5074 685.9494" clip-path="url(#clipPath2)"/>
      <path d="M743.7302 680.9217 L731.2538 684.574 L736.7296 686.5778 L737.5384 692.3524 Z" clip-path="url(#clipPath2)" stroke="none"/>
      <path fill="none" d="M479.5292 1078.7854 L469.1527 1078.5352 L445.7168 1075.8516 L423.7875 1071.0859 L403.3647 1064.2383 L384.4486 1055.3086 L367.0391 1044.2969 L351.1361 1031.2031 L336.7397 1016.0273 L323.85 998.7695 L312.4668 979.4297 L302.5902 958.0078 L294.727 935.927 L294.7011 935.8304" clip-path="url(#clipPath2)"/>
      <path d="M292.5105 928.1362 L290.9875 941.0467 L294.9749 936.7922 L300.6053 938.3085 Z" clip-path="url(#clipPath2)" stroke="none"/>
      <path fill="none" d="M249.4556 834.2573 L234.9988 811.0239 L216.4002 775.8245 L201.0694 740.5677 L189.0066 705.2534 L180.2118 669.8815 L174.6849 634.4521 L172.4259 598.9653 L173.4349 563.4209 L177.7118 527.819 L185.2566 492.1596 L196.0694 456.4427 L210.1502 420.6683 L222.9791 394.1713" clip-path="url(#clipPath2)"/>
      <path d="M226.4654 386.9709 L216.7358 395.5927 L222.5434 395.0714 L225.7363 399.9504 Z" clip-path="url(#clipPath2)" stroke="none"/>
      <path fill="none" d="M552.1604 1122.2428 L553.2194 1131.0621 L558.3882 1156.4434 L565.4297 1179.7561 L574.344 1201.0001 L585.1309 1220.1755 L597.7906 1237.2823 L612.323 1252.3206 L628.7281 1265.2902 L647.0059 1276.1912 L667.1565 1285.0236 L689.1797 1291.7874 L704.1524 1294.7291" clip-path="url(#clipPath2)"/>
      <path d="M712.0023 1296.2715 L701.1914 1289.0518 L703.1711 1294.5364 L699.2635 1298.8641 Z" clip-path="url(#clipPath2)" stroke="none"/>
      <path fill="none" d="M544.8443 1122.2729 L544.342 1142.5573 L546.0232 1174.1152 L550.2112 1203.8906 L556.9061 1231.8834 L566.1078 1258.0938 L577.8163 1282.5215 L592.0317 1305.1666 L608.7538 1326.0293 L627.9828 1345.1094 L649.7186 1362.4069 L673.9612 1377.9219 L700.7107 1391.6543 L704.59 1393.2388" clip-path="url(#clipPath2)"/>
      <path d="M711.996 1396.2638 L702.7776 1387.0975 L703.6642 1392.8607 L698.9963 1396.3551 Z" clip-path="url(#clipPath2)" stroke="none"/>
      <path fill="none" d="M577.7021 1122.2806 L581.1171 1126.9622 L593.4038 1141.0869 L606.3976 1153.4625 L620.0984 1164.089 L634.5065 1172.9666 L649.6217 1180.095 L665.444 1185.4744 L681.9734 1189.1046 L699.2101 1190.986 L704.0023 1191.0212" clip-path="url(#clipPath2)"/>
      <path d="M712.002 1191.0802 L700.0392 1185.9919 L703.0023 1191.0139 L699.9655 1195.9916 Z" clip-path="url(#clipPath2)" stroke="none"/>
    </g>
  </g>
</svg>
